<svg width="18" height="21" viewBox="0 0 18 21" fill="none" xmlns="http://www.w3.org/2000/svg">
<path d="M4.00488 6.99951V4.99951C4.00488 2.23809 6.24346 -0.000488281 9.0049 -0.000488281C11.7663 -0.000488281 14.0049 2.23809 14.0049 4.99951V6.99951H17.0049C17.5572 6.99951 18.0049 7.44723 18.0049 7.99951V19.9995C18.0049 20.5518 17.5572 20.9995 17.0049 20.9995H1.00488C0.452603 20.9995 0.00488281 20.5518 0.00488281 19.9995V7.99951C0.00488281 7.44723 0.452603 6.99951 1.00488 6.99951H4.00488ZM4.00488 8.99951H2.00488V18.9995H16.0049V8.99951H14.0049V10.9995H12.0049V8.99951H6.00488V10.9995H4.00488V8.99951ZM6.00488 6.99951H12.0049V4.99951C12.0049 3.34266 10.6617 1.99951 9.0049 1.99951C7.348 1.99951 6.00488 3.34266 6.00488 4.99951V6.99951Z" fill="#001427"/>
</svg>
